<svg width="55" height="53" viewBox="0 0 55 53" fill="none" xmlns="http://www.w3.org/2000/svg">
<path d="M52.0538 18.5317C51.3281 16.2963 51.6375 12.9408 49.7512 10.3499C47.85 7.73856 44.5434 6.99635 42.6763 5.63801C40.8289 4.29399 39.1102 1.36927 36.0025 0.360564C32.9826 -0.619722 29.8944 0.710513 27.5 0.710513C25.1059 0.710513 22.0179 -0.620042 18.9975 0.360457C15.8904 1.36895 14.1702 4.29431 12.324 5.63769C10.4589 6.99443 7.14989 7.73867 5.24906 10.3496C3.36435 12.9383 3.67061 16.3016 2.94615 18.5316C2.25672 20.6541 0 23.2014 0 26.5002C0 29.8011 2.25414 32.3386 2.94615 34.4687C3.67189 36.7041 3.36252 40.0597 5.24885 42.6506C7.14989 45.262 10.4563 46.0041 12.3237 47.3625C14.1708 48.7064 15.8898 51.6313 18.9975 52.6399C22.0154 53.6195 25.1084 52.2899 27.5 52.2899C29.8883 52.2899 32.9885 53.6181 36.0025 52.64C39.1097 51.6315 40.8288 48.7068 42.676 47.3628C44.5411 46.006 47.8501 45.2618 49.7509 42.6509C51.6358 40.062 51.3293 36.6991 52.0538 34.4688C52.7433 32.3463 55 29.7989 55 26.5002C55 23.1996 52.7464 20.6629 52.0538 18.5317ZM47.9653 33.1545C47.1193 35.7591 47.3409 38.674 46.271 40.1437C45.1867 41.6329 42.338 42.3131 40.1398 43.9125C37.9657 45.4941 36.4419 48.0012 34.6697 48.5764C32.993 49.1207 30.2606 48.0155 27.5001 48.0155C24.7194 48.0155 22.0151 49.1231 20.3304 48.5764C18.5584 48.0012 17.0368 45.4958 14.8603 43.9124C12.6751 42.3227 9.8102 41.6285 8.72899 40.1434C7.66251 38.6787 7.87574 35.7436 7.03495 33.1546C6.21081 30.618 4.29688 28.4216 4.29688 26.5002C4.29688 24.577 6.20909 22.3881 7.03474 19.846C7.88068 17.2415 7.65907 14.3264 8.72899 12.8568C9.81267 11.3685 12.6635 10.686 14.8603 9.08793C17.0413 7.50124 18.5555 5.00009 20.3302 4.42404C22.0055 3.88036 24.7468 4.98492 27.4999 4.98492C30.2857 4.98492 32.9831 3.87662 34.6696 4.42404C36.4414 4.99913 37.9643 7.50551 40.1398 9.08803C42.3247 10.6777 45.1898 11.3719 46.271 12.8569C47.3377 14.322 47.1233 17.2541 47.965 19.8457C48.7892 22.3824 50.7031 24.5789 50.7031 26.5002C50.7031 28.4235 48.7909 30.6123 47.9653 33.1545ZM37.3982 19.6407C38.2372 20.4753 38.2372 21.8284 37.3982 22.663L26.6446 33.3598C25.8055 34.1944 24.4451 34.1943 23.6062 33.3598L17.6019 27.3872C16.7629 26.5526 16.7628 25.1995 17.6018 24.3649C18.4409 23.5304 19.8014 23.5303 20.6401 24.3649L25.1253 28.8263L34.3596 19.6408C35.1987 18.8062 36.5591 18.8062 37.3982 19.6407Z" fill="#0F508A"/>
</svg>
