<svg width="52" height="59" viewBox="0 0 52 59" fill="none" xmlns="http://www.w3.org/2000/svg">
<path d="M45.0715 3.45703C43.8099 3.45703 42.6272 3.79686 41.6073 4.3872V1.72852C41.6073 0.773914 40.8317 0 39.8751 0H12.1615C11.2048 0 10.4292 0.773914 10.4292 1.72852V4.40829C9.40118 3.80481 8.20498 3.45703 6.92842 3.45703C3.10809 3.45703 0 6.55868 0 10.3711C0 13.279 0.863512 16.0888 2.49712 18.4967C5.27819 22.596 8.70764 23.6597 11.5454 24.7924C13.1817 28.8588 16.4906 32.0815 20.6182 33.6073L19.3409 41.7148H19.0899C16.2246 41.7148 13.8936 44.0411 13.8936 46.9004V55.543H12.1615C11.2049 55.543 10.4294 56.3169 10.4294 57.2715C10.4294 58.2261 11.2049 59 12.1615 59H39.8751C40.8317 59 41.6073 58.2261 41.6073 57.2715C41.6073 56.3169 40.8317 55.543 39.8751 55.543H38.143V46.9004C38.143 44.0411 35.812 41.7148 32.9467 41.7148H32.6957L31.4185 33.6074C35.5522 32.0793 38.8647 28.8496 40.4986 24.7749C43.1793 23.7049 46.6933 22.638 49.5029 18.4967C51.1365 16.0888 52 13.2789 52 10.3711C51.9999 6.55868 48.8918 3.45703 45.0715 3.45703ZM10.4164 20.6185C6.19308 18.9327 3.46421 14.9104 3.46421 10.3711C3.46421 8.46489 5.01826 6.91406 6.92842 6.91406C8.83859 6.91406 10.3926 8.46489 10.3926 10.3711C10.3926 10.4927 10.4054 10.6111 10.4294 10.7256V19.0137C10.4294 19.5692 10.4593 20.1178 10.5165 20.6585L10.4164 20.6185ZM34.6788 55.543H17.3578V52.0859H34.6788V55.543ZM32.9467 45.1719C33.9018 45.1719 34.6788 45.9473 34.6788 46.9004V48.6289H17.3578V46.9004C17.3578 45.9473 18.1348 45.1719 19.0899 45.1719C20.0296 45.1719 30.7429 45.1719 32.9467 45.1719ZM22.8476 41.7148L23.9938 34.4393C24.6566 34.5255 25.3323 34.5703 26.0183 34.5703C26.7043 34.5703 27.38 34.5254 28.0428 34.4393L29.189 41.7148H22.8476ZM38.143 19.0137C38.143 25.6854 32.7039 31.1133 26.0183 31.1133C19.3327 31.1133 13.8936 25.6854 13.8936 19.0137V10.3711H38.143V19.0137ZM38.143 6.91406H13.8936V3.45703H38.143V6.91406ZM41.5833 20.6185L41.5218 20.6431C41.5779 20.1075 41.6071 19.5639 41.6071 19.0137V10.3711C41.6073 8.46489 43.1613 6.91406 45.0715 6.91406C46.9816 6.91406 48.5357 8.46489 48.5357 10.3711C48.5357 14.9104 45.8068 18.9328 41.5833 20.6185Z" fill="#0F508A"/>
</svg>
