<svg width="52" height="58" viewBox="0 0 52 58" fill="none" xmlns="http://www.w3.org/2000/svg">
<path d="M50.2546 23.1641C49.8673 10.3264 39.1365 0 26 0C12.8635 0 2.13269 10.3264 1.74524 23.1641L0 24.8817V36.5301L1.73333 38.236V46.1726C1.73333 50.813 5.56932 54.5882 10.2844 54.5882H12.4315C13.147 56.5738 15.0736 58 17.3333 58H20.8C23.0612 58 24.9889 56.5717 25.7033 54.5841C25.8023 54.5858 25.9015 54.5882 26 54.5882C34.3706 54.5882 41.3744 48.7182 42.9848 40.9412H47.5179L52 36.5301V24.8817L50.2546 23.1641ZM26 3.41176C36.288 3.41176 44.8542 10.8015 46.5095 20.4706H42.9848C41.3744 12.6936 34.3706 6.82353 26 6.82353C17.6294 6.82353 10.6256 12.6936 9.01518 20.4706H5.49051C7.14584 10.8015 15.712 3.41176 26 3.41176ZM39.4279 20.4706C33.8247 20.4541 29.867 20.7899 26.6039 16.0956L25.0194 13.8162L23.6577 16.231C21.6736 19.7496 19.0016 20.4706 15.6 20.4706H12.5721C14.1153 14.5912 19.5505 10.2353 26 10.2353C32.4495 10.2353 37.8847 14.5912 39.4279 20.4706ZM8.66667 37.5294H5.91795L3.46667 35.117V26.2948L5.91795 23.8824H8.66667V37.5294ZM5.2 46.1726V40.9412H9.01183C9.66437 44.1226 11.2256 47.043 13.5386 49.3886C13.0537 49.8984 12.6734 50.5051 12.4315 51.1765H10.2844C7.48084 51.1765 5.2 48.9318 5.2 46.1726ZM20.8 54.5882H17.3333C16.3775 54.5882 15.6 53.8231 15.6 52.8824C15.6 51.9417 16.3775 51.1765 17.3333 51.1765H20.8C21.7558 51.1765 22.5333 51.9417 22.5333 52.8824C22.5333 53.8231 21.7558 54.5882 20.8 54.5882ZM39.8667 37.5294C39.8667 45.0544 33.6461 51.1765 26 51.1765C25.9006 51.1765 25.8004 51.1745 25.7004 51.1723C24.9837 49.1889 23.0581 47.7647 20.8 47.7647C17.2409 47.7724 17.2976 47.7472 16.854 47.7873C13.8447 45.1914 12.1333 41.494 12.1333 37.5294V23.8824H15.6C18.6677 23.8824 22.4036 23.3846 25.2955 19.9207C29.1111 23.856 33.774 23.8824 37.9598 23.8824H39.8667V37.5294ZM48.5333 35.117L46.0821 37.5294H43.3333V23.8824H46.0821L48.5333 26.2948V35.117Z" fill="#0F508A"/>
</svg>
