<svg width="61" height="61" viewBox="0 0 61 61" fill="none" xmlns="http://www.w3.org/2000/svg">
<g clip-path="url(#clip0_110_2397)">
<path d="M56.2703 31.6204V3.84275C56.2703 2.85176 55.4669 2.04834 54.4759 2.04834H6.39997C5.40898 2.04834 4.60556 2.85176 4.60556 3.84275V33.8348C3.73994 33.9609 2.8937 34.2969 2.14507 34.8527C-0.214932 36.5262 -0.773112 40.2712 1.20373 42.5809L9.28609 52.3792C14.2891 58.2345 19.6038 58.952 27.5047 58.952C34.2848 58.952 37.316 58.9819 43.225 57.6355L48.9788 56.2593C49.9118 57.5621 51.3929 58.4061 53.058 58.4061H55.8924C58.7087 58.4061 60.9999 55.9924 60.9999 53.0255V36.9848C61 34.1519 58.9106 31.825 56.2703 31.6204ZM48.2048 35.3116L45.814 34.0973C41.8829 32.113 37.3379 32.0396 33.3448 33.8961C32.2553 34.3246 29.8792 35.7622 28.6467 35.7142H20.3503C17.5984 35.7142 15.3594 37.953 15.3594 40.705V42.0136C15.344 41.9973 15.3279 41.9819 15.3127 41.9654L9.38813 35.5346C9.02961 35.1454 8.62683 34.8198 8.19449 34.5586V16.7558H22.8791V23.3336C22.8791 24.3246 23.6825 25.128 24.6735 25.128H35.9963C36.9873 25.128 37.7907 24.3246 37.7907 23.3336V16.7558H52.6816V31.6203C50.5851 31.7822 48.8368 33.2821 48.2048 35.3116ZM26.4678 16.7558H34.2018V21.5392H26.4678V16.7558ZM52.6815 13.167H37.7907V5.63715H52.6816V13.167H52.6815ZM34.2019 5.63715V13.1671H26.4679V5.63715H34.2019ZM22.879 5.63715V13.1671H8.19437V5.63715H22.879ZM42.3922 54.1445C36.9336 55.3947 33.6461 55.3441 27.5691 55.3441C20.1522 55.3441 16.5685 55.2243 12.0547 50.0954L3.97237 40.2971C2.56652 38.4664 5.1129 36.3053 6.74868 37.966L12.6732 44.3969C14.239 46.0491 16.2094 46.9584 18.6379 47.0119H35.0637C36.0547 47.0119 36.8581 46.2084 36.8581 45.2174C36.8581 44.2265 36.0547 43.423 35.0637 43.423H18.9481V40.7048C18.9481 39.9317 19.577 39.3027 20.3502 39.3027H28.6465C30.5156 39.4366 33.2133 37.8759 34.8577 37.1502C37.8484 35.7596 41.2525 35.8146 44.1928 37.2987L47.9508 39.2075V52.8148L42.3922 54.1445ZM57.4112 53.0254C57.4112 54.0134 56.7299 54.8172 55.8926 54.8172H53.0581C52.2207 54.8172 51.5396 54.0134 51.5396 53.0254V36.9848C51.5396 35.9968 52.2208 35.1929 53.0581 35.1929H55.8926C56.7299 35.1929 57.4112 35.9967 57.4112 36.9848V53.0254Z" fill="#0F508A"/>
</g>
<defs>
<clipPath id="clip0_110_2397">
<rect width="61" height="61" fill="white"/>
</clipPath>
</defs>
</svg>
