<svg width="41" height="40" viewBox="0 0 41 40" fill="none" xmlns="http://www.w3.org/2000/svg">
<path d="M33.403 2.34375C32.5495 2.34375 31.7493 2.57414 31.0593 2.97437V1.17188C31.0593 0.524687 30.5346 0 29.8874 0H11.1374C10.4901 0 9.96544 0.524687 9.96544 1.17188V2.98867C9.26989 2.57953 8.4606 2.34375 7.59692 2.34375C5.01224 2.34375 2.90942 4.44656 2.90942 7.03125C2.90942 9.00273 3.49364 10.9077 4.59888 12.5402C6.48044 15.3193 8.80067 16.0405 10.7206 16.8084C11.8276 19.5653 14.0663 21.7502 16.8589 22.7846L15.9947 28.2812H15.8249C13.8864 28.2812 12.3093 29.8584 12.3093 31.7969V37.6562H11.1374C10.4902 37.6562 9.96552 38.1809 9.96552 38.8281C9.96552 39.4753 10.4902 40 11.1374 40H29.8874C30.5346 40 31.0593 39.4753 31.0593 38.8281C31.0593 38.1809 30.5346 37.6562 29.8874 37.6562H28.7155V31.7969C28.7155 29.8584 27.1384 28.2812 25.1999 28.2812H25.03L24.166 22.7847C26.9626 21.7487 29.2038 19.5591 30.3092 16.7966C32.1229 16.0711 34.5003 15.3478 36.4011 12.5402C37.5064 10.9077 38.0906 9.00266 38.0906 7.03125C38.0905 4.44656 35.9877 2.34375 33.403 2.34375ZM9.95677 13.9787C7.09942 12.8357 5.25317 10.1087 5.25317 7.03125C5.25317 5.73891 6.30458 4.6875 7.59692 4.6875C8.88927 4.6875 9.94067 5.73891 9.94067 7.03125C9.94067 7.11367 9.94935 7.19398 9.96552 7.27156V12.8906C9.96552 13.2673 9.98575 13.6392 10.0245 14.0058L9.95677 13.9787ZM26.3718 37.6562H14.653V35.3125H26.3718V37.6562ZM25.1999 30.625C25.8461 30.625 26.3718 31.1507 26.3718 31.7969V32.9688H14.653V31.7969C14.653 31.1507 15.1787 30.625 15.8249 30.625C16.4607 30.625 23.7089 30.625 25.1999 30.625ZM18.3672 28.2812L19.1427 23.3487C19.5911 23.4071 20.0483 23.4375 20.5124 23.4375C20.9765 23.4375 21.4336 23.407 21.8821 23.3487L22.6575 28.2812H18.3672ZM28.7155 12.8906C28.7155 17.4138 25.0356 21.0938 20.5124 21.0938C15.9892 21.0938 12.3093 17.4138 12.3093 12.8906V7.03125H28.7155V12.8906ZM28.7155 4.6875H12.3093V2.34375H28.7155V4.6875ZM31.0431 13.9787L31.0015 13.9953C31.0394 13.6322 31.0592 13.2637 31.0592 12.8906V7.03125C31.0593 5.73891 32.1107 4.6875 33.403 4.6875C34.6954 4.6875 35.7468 5.73891 35.7468 7.03125C35.7468 10.1087 33.9005 12.8358 31.0431 13.9787Z" fill="white"/>
</svg>
